<svg xmlns="http://www.w3.org/2000/svg" fill="none" viewBox="0 0 268 50">
  <g clip-path="url(#clip0_201_16921)">
    <path
      fill="#FFC300"
      d="m40.8538 14.4507-4.5492 4.4776-9.7177-9.56458 6.5614-7.03877 7.7055 12.12575Z"
    ></path>
    <path
      fill="#F59B00"
      d="M53.1736 2.32495 43.4582 18.8886 26.5869 35.4942l9.7177-16.5659 16.869-16.60335Z"
    ></path>
    <path fill="#FAAA00" d="M53.1732 2.32495 40.8534 14.4507 33.1479 2.32495h20.0253Z"></path>
    <path
      fill="#EB5050"
      d="M36.3044 18.9283H16.8691l-4.5493-4.4776h.0023l7.7346-12.12575 6.53 7.03877 9.7177 9.56458Z"
    ></path>
    <path fill="#EB3232" d="m36.3044 18.9282-9.7176 16.5659-9.7177-16.5659h19.4353Z"></path>
    <path
      fill="#E10000"
      d="M26.5867 35.4942 9.7154 18.8886 0 2.32495 16.869 18.9283l9.7177 16.5659Z"
    ></path>
    <path fill="#EB3232" d="M20.0567 2.32495 12.3198 14.4485 0 2.32495h20.0567Z"></path>
    <path
      fill="#0F1E28"
      d="M93.0016 2.32495 82.1219 34.1761h-8.0554L62.9536 2.32495h6.5278l8.6117 25.01545 8.3807-25.01545h6.5278ZM101.937 34.6771c-2.5621 0-4.6767-.3341-6.3441-1.0023-1.5299-.5762-2.9013-1.4973-4.0042-2.6893-1.0008-1.1198-1.7221-2.4542-2.1064-3.8969-.4078-1.5238-.6099-3.0939-.6012-4.6697.0024-1.4777.2045-2.9486.6012-4.3738.3824-1.421 1.0339-2.7581 1.9202-3.9411.9136-1.1955 2.094-2.1684 3.4501-2.8438 1.4207-.736 3.1495-1.104 5.1864-1.104 2.159 0 3.954.368 5.384 1.104 1.362.6677 2.543 1.6438 3.447 2.8482.871 1.1806 1.493 2.5205 1.831 3.9411.351 1.4323.53 2.9004.532 4.3738v2.0512H94.8526c-.0194.7639.1312 1.5228.4412 2.2234.31.7006.7719 1.326 1.3534 1.8325 1.1859 1.0627 2.8137 1.5941 4.8838 1.5941 1.087.0067 2.171-.1171 3.228-.3688.87-.2048 1.721-.4795 2.546-.8213.778-.3211 1.522-.7175 2.221-1.1834v5.1024c-.183.1365-.386.2445-.602.3202-.4.181-.94.3856-1.619.6138-.788.2563-1.592.4621-2.407.616-.976.1873-1.968.2791-2.961.2737Zm3.425-14.5367c-.007-.5754-.077-1.1483-.209-1.709-.142-.6298-.409-1.2257-.787-1.753-.422-.578-.98-1.0468-1.626-1.3667-.696-.3665-1.598-.549-2.708-.5476-.8448-.0268-1.6824.1618-2.4315.5476-.626.3345-1.1692.8012-1.5904 1.3667-.3931.5304-.6906 1.1234-.8794 1.753-.1748.5537-.2685 1.1292-.2781 1.709h10.5094ZM127.352 16.5857c-.632-.1398-1.275-.2226-1.922-.2473-.57-.0155-1.104 0-1.598.0221-.849.0247-1.681.2439-2.429.6403-.608.3404-1.112.8363-1.458 1.4351-.351.6224-.586 1.3012-.696 2.0048-.124.7614-.185 1.5316-.183 2.3028v11.4369h-6.25V10.9357h4.583l.971 5.1046c.129-.6181.323-1.2212.579-1.7994.271-.5665.605-1.1018.996-1.5963.455-.5834 1.009-1.0847 1.637-1.4815.736-.4528 1.553-.7616 2.407-.9097 1.118-.1807 2.26-.15 3.365.0906l-.002 6.2417ZM143.324 10.1563c1.258-.0321 2.507.2092 3.659.7065.982.4463 1.845 1.1115 2.521 1.943.688.8615 1.187 1.8538 1.465 2.9144.313 1.1902.463 2.416.449 3.6452V34.176h-6.196V21.4166c0-2.2477-.308-3.9036-.924-4.9678-.616-1.0642-1.683-1.5956-3.199-1.5941-1.822 0-3.172.7441-4.051 2.2322-.88 1.4881-1.318 3.4465-1.315 5.8752v11.2095h-6.205V0h5.88v13.9097c.307-.3356.648-.7219 1.018-1.1635.409-.4735.884-.8875 1.411-1.2298.673-.4244 1.406-.7466 2.176-.956 1.079-.2886 2.194-.4247 3.311-.4041ZM165.223 10.1562c1.363.0163 2.72.2003 4.037.5476 1.471.3739 2.855 1.0239 4.076 1.9143 1.333.9905 2.417 2.2685 3.17 3.7357.848 1.5809 1.273 3.6011 1.274 6.0607.002 2.4596-.427 4.482-1.285 6.0673-.752 1.468-1.836 2.7462-3.17 3.7357-1.221.8904-2.605 1.5404-4.076 1.9143-2.634.73-5.421.73-8.055 0-1.465-.3711-2.841-1.0215-4.052-1.9143-1.319-.9925-2.388-2.2708-3.124-3.7357-.836-1.5794-1.254-3.6004-1.254-6.0629s.416-4.4828 1.249-6.0607c.738-1.4641 1.807-2.7421 3.125-3.7357 1.21-.8928 2.587-1.5432 4.051-1.9143 1.316-.3484 2.671-.5338 4.034-.552Zm0 19.9594c.828.0111 1.648-.1636 2.398-.511.75-.3474 1.409-.8582 1.929-1.4937 1.157-1.3351 1.736-3.2339 1.736-5.6964 0-2.4626-.579-4.3532-1.736-5.6721-.522-.6313-1.183-1.1381-1.932-1.4823-.75-.3441-1.569-.5167-2.395-.5048-1.666 0-3.071.6624-4.213 1.9871-1.143 1.3247-1.714 3.2154-1.714 5.6721-.016 1.1031.14 2.2022.462 3.2588.266.8729.69 1.6912 1.252 2.4155.501.6347 1.142 1.1489 1.875 1.5036.727.3511 1.527.5317 2.338.5276v-.0044ZM191.89 34.6771c-2.564 0-4.678-.3341-6.344-1.0023-1.53-.5762-2.902-1.4973-4.004-2.6893-1.001-1.1198-1.723-2.4542-2.107-3.8969-.408-1.5237-.611-3.0938-.603-4.6697.003-1.4778.206-2.9487.603-4.3738.383-1.421 1.034-2.7581 1.92-3.9411.913-1.196 2.094-2.169 3.45-2.8438 1.42-.736 3.148-1.104 5.185-1.104 2.159 0 3.954.368 5.383 1.104 1.362.6677 2.544 1.6438 3.448 2.8482.87 1.1807 1.492 2.5207 1.828 3.9411.352 1.4322.532 2.9003.534 4.3738v2.0512h-16.378c-.02.7628.128 1.521.436 2.2215.308.7005.767 1.3265 1.346 1.8344 1.196 1.0627 2.825 1.5941 4.885 1.5941 1.091.0079 2.179-.1159 3.24-.3688.87-.2046 1.723-.4793 2.548-.8213.778-.3216 1.522-.718 2.221-1.1834v5.1024c-.183.1365-.386.2445-.602.3202-.402.181-.942.3856-1.619.6138-.789.2566-1.594.4624-2.409.616-.976.1875-1.968.2792-2.961.2737Zm3.425-14.5367c-.007-.5754-.077-1.1483-.209-1.709-.142-.6298-.409-1.2257-.787-1.753-.423-.5775-.981-1.0463-1.626-1.3667-.696-.3665-1.599-.549-2.71-.5476-.844-.0268-1.681.1618-2.43.5476-.626.3339-1.169.8007-1.59 1.3667-.394.5299-.692 1.123-.879 1.753-.175.5537-.269 1.1292-.279 1.709h10.51ZM223.972 10.7083l-8.798 23.4677h-6.989l-8.843-23.4677h6.11l6.25 17.0869 6.158-17.0869h6.112Zm0 0-8.798 23.4677h-6.989l-8.843-23.4677h6.11l6.25 17.0869 6.158-17.0869h6.112ZM235.13 34.6771c-2.565 0-4.679-.3341-6.344-1.0023-1.53-.5762-2.901-1.4973-4.004-2.6893-1.001-1.1198-1.722-2.4542-2.106-3.8969-.407-1.524-.607-3.0941-.597-4.6697.002-1.4777.204-2.9486.601-4.3738.383-1.421 1.034-2.7581 1.92-3.9411.913-1.195 2.091-2.1678 3.446-2.8438 1.419-.736 3.147-1.104 5.184-1.104 2.16 0 3.954.368 5.384 1.104 1.362.6677 2.543 1.6438 3.448 2.8482.869 1.1811 1.492 2.5209 1.83 3.9411.351 1.4323.53 2.9004.532 4.3738v2.0512h-16.378c-.021.763.128 1.5214.436 2.2219.308.7006.768 1.3265 1.347 1.834 1.186 1.0627 2.814 1.5941 4.884 1.5941 1.091.0092 2.18-.1131 3.241-.3643.87-.2049 1.722-.4796 2.546-.8214.778-.3216 1.522-.718 2.221-1.1834v5.098c-.182.1365-.385.2445-.601.3202-.401.181-.941.3856-1.62.6138-.788.2566-1.593.4624-2.409.616-.975.1875-1.967.2792-2.961.2737Zm3.425-14.5367c-.007-.5754-.076-1.1483-.208-1.709-.142-.6298-.41-1.2257-.788-1.753-.42-.5767-.976-1.0454-1.619-1.3667-.696-.3665-1.599-.549-2.71-.5476-.844-.0266-1.681.162-2.429.5476-.629.3337-1.174.8005-1.598 1.3667-.393.5299-.691 1.123-.879 1.753-.175.5537-.268 1.1292-.278 1.709h10.509ZM259.897 10.1564c1.257-.0321 2.506.2091 3.657.7065.983.4455 1.847 1.1108 2.523 1.943.686.8627 1.182 1.8557 1.459 2.9166.317 1.1895.474 2.4153.464 3.6452v14.8106h-6.205V21.4167c0-2.2477-.309-3.9036-.926-4.9678-.618-1.0642-1.683-1.5956-3.195-1.5941-1.821 0-3.167.7441-4.037 2.2322-.871 1.4881-1.315 3.4465-1.333 5.8752v11.2095h-6.202V10.7084h4.63l1.249 3.2014c.307-.3356.648-.722 1.018-1.1635.409-.4735.884-.8875 1.411-1.2298.673-.4244 1.406-.7467 2.176-.9561 1.079-.2885 2.194-.4246 3.311-.404Z"
    ></path>
    <path
      fill="#EB3232"
      d="M132.068 49.8521h-2.54v-9.3416h6.71l-.314 1.7774h-3.856v1.912h3.856v1.7773h-3.856v3.8749ZM143.068 40.3757c.525.0066 1.047.0763 1.555.2076.595.1456 1.15.4212 1.623.8065.472.3852.851.8702 1.107 1.419.341.752.503 1.5704.475 2.3934.008.5779-.067 1.154-.224 1.7111-.126.4506-.323.8789-.583 1.2696-.231.3389-.517.6374-.848.8831-.312.2304-.653.4196-1.014.563-.345.1348-.705.2311-1.072.2871-.337.051-.678.0776-1.019.0794-.522-.005-1.042-.0724-1.548-.2009-.559-.1359-1.083-.384-1.541-.7286-.507-.39-.914-.8913-1.189-1.4638-.344-.7548-.507-1.5776-.475-2.4044-.007-.5779.069-1.1539.224-1.7111.127-.4519.327-.8806.592-1.2696.234-.3385.523-.6369.855-.8831.31-.2299.647-.4205 1.005-.5675.342-.1413.7-.2421 1.066-.3002.334-.0574.672-.0877 1.011-.0906Zm-2.144 4.8132c-.001.3749.039.7488.121 1.115.072.3373.201.6604.381.9561.167.2707.398.4979.673.6623.3.1632.636.2488.978.2488.342 0 .679-.0856.978-.2488.275-.1652.505-.3922.673-.6623.18-.2958.308-.6189.379-.9561.084-.3659.125-.7399.124-1.115.002-.3845-.039-.7681-.124-1.1436-.071-.3352-.199-.6562-.379-.9494-.168-.2661-.399-.4881-.673-.647-.301-.1579-.637-.2405-.978-.2405-.341 0-.677.0826-.978.2405-.275.158-.506.3802-.673.647-.18.2931-.309.614-.381.9494-.083.3757-.123.7592-.121 1.1436ZM154.569 50c-.567.0057-1.13-.087-1.664-.2737-.486-.1681-.935-.4242-1.324-.7551-.366-.3135-.663-.6984-.87-1.1305-.209-.4364-.315-.9132-.312-1.3954v-5.9348h2.526v5.7207c0 .2502.009.4886.027.7153.012.2095.075.4131.184.5939.117.1805.287.3209.489.4019.301.1106.623.1601.944.1457.32.0161.64-.0382.936-.159.199-.0909.365-.2405.475-.4283.104-.1895.164-.399.177-.6138.018-.2326.027-.4732.027-.722v-5.6544h2.54v5.9348c.004.4823-.103.9593-.312 1.3954-.207.4303-.5.8149-.862 1.1305-.385.3303-.83.5865-1.312.7551-.535.1876-1.1.2803-1.669.2737ZM169.733 49.8521h-2.553l-1.005-3.0204c-.05-.1177-.113-.2295-.188-.3334-.077-.0807-.161-.1546-.251-.2208-.11-.0748-.242-.1121-.375-.106h-1.121v3.6872h-2.517v-9.3482h3.34c.489 0 .985.0132 1.487.0397.465.0189.925.1067 1.364.2606.393.1358.74.3776 1 .6977.283.3978.419.878.388 1.3622.028.4741-.078.9463-.307 1.3645-.165.283-.395.5235-.673.7021-.304.1641-.639.2662-.985.3003.202-.0071.4.0461.57.1523.143.0932.27.2088.375.3423.108.1517.193.3184.251.4945l1.2 3.6254Zm-4.711-5.4535c.225 0 .429 0 .638-.0199.191-.0092.379-.0518.556-.1258.161-.0686.298-.1822.395-.3268.109-.1845.161-.3962.15-.6094.011-.2087-.036-.4165-.137-.6005-.085-.1386-.213-.2469-.366-.3091-.176-.0661-.363-.102-.551-.106-.211 0-.449-.0132-.685-.0132h-.773v2.1107h.773ZM178.59 47.8606h-3.589l-.815 1.9871h-2.467l3.463-9.3416h3.246l3.639 9.3416h-2.647l-.83-1.9871Zm-.626-1.7509c-.072-.2583-.141-.4923-.204-.7021-.063-.2097-.137-.4416-.225-.7131l-.258-.8103c-.085-.2716-.17-.5343-.258-.7882-.087-.2539-.159-.4703-.224-.647-.244.6845-.448 1.2961-.65 1.8304-.083.2208-.162.457-.238.6756-.076.2186-.148.4107-.211.5807-.063.17-.126.3599-.191.574h2.459ZM188.693 44.3986h3.924v4.8132c-.277.1399-.568.2495-.868.3267-.346.095-.705.1767-1.082.2473-.376.0707-.742.1259-1.099.1612-.356.0353-.673.053-.917.053-.344-.003-.686-.0318-1.025-.0861-.383-.0625-.759-.1616-1.122-.2959-.395-.1428-.772-.331-1.122-.5608-.367-.2409-.692-.5392-.962-.8831-.296-.3847-.524-.8163-.673-1.2762-.177-.5556-.262-1.1356-.251-1.7177-.035-.8413.15-1.6774.536-2.4287.325-.5951.796-1.1006 1.371-1.4705.566-.3543 1.195-.5993 1.855-.722.657-.1267 1.326-.1918 1.996-.1943.321.0006.641.0235.958.0685.331.0441.633.0927.909.1457.275.053.592.1259.944.2208v1.912c-.295-.0972-.594-.1797-.897-.2472-.267-.0597-.568-.1149-.898-.1678-.332-.0527-.668-.0793-1.005-.0795-.43-.0037-.86.034-1.283.1126-.362.0666-.702.2181-.991.4416-.293.2372-.514.5487-.64.9008-.164.4894-.24 1.0036-.224 1.519-.012.4726.054.9441.197 1.3954.11.334.293.6401.537.8964.223.2249.501.3905.807.4813.324.0942.661.1411.998.1391.289.0049.578-.0106.864-.0463.154-.0193.304-.0571.449-.1127.044-.0138.084-.0365.119-.0665.035-.03.063-.0667.083-.1079v-1.5897h-1.479l-.009-1.7817ZM198.198 48.088h4.318v1.7663h-6.831l-.029-9.3416h6.71l-.312 1.7663h-3.856v1.9253h4.004v1.7773h-4.004v2.1064ZM213.416 40.5105v9.3416h-2.526v-3.9963h-2.988v3.9963h-2.512v-9.3416h2.512v3.5812h2.988v-3.5812h2.526ZM222.575 47.8606h-3.59l-.814 1.9871h-2.467l3.459-9.3372h3.246l3.638 9.3416H223.4l-.825-1.9915Zm-.624-1.7509c-.074-.2583-.141-.4923-.204-.7021-.063-.2097-.139-.4416-.224-.7131-.086-.2716-.173-.5366-.258-.8103-.086-.2738-.173-.5343-.258-.7883-.086-.2539-.162-.4702-.225-.6469-.244.6845-.462 1.2961-.65 1.8304-.083.2208-.162.457-.238.6756-.076.2186-.148.4107-.211.5807-.063.17-.128.3599-.191.574h2.459ZM237.019 49.8521h-3.176l-3.314-6.3874v6.3874h-2.243v-9.3416h3.26l3.162 6.3477v-6.3477h2.309l.002 9.3416ZM240.162 49.8522v-9.3416h4.508c.647-.0098 1.289.1104 1.887.3532.543.224 1.032.5589 1.433.9825.401.43.711.9345.911 1.4837.425 1.2034.425 2.5126 0 3.7159-.199.5478-.509 1.0503-.911 1.4771-.402.421-.891.7535-1.433.9759-.598.2429-1.24.3631-1.887.3533h-4.508Zm2.539-1.8436h1.223c.858 0 1.521-.2495 1.989-.7485.468-.499.701-1.1893.698-2.071 0-.892-.233-1.5853-.698-2.0798-.465-.4946-1.128-.7419-1.989-.7419h-1.223v5.6412ZM254.451 48.088h4.318v1.7663h-6.83l-.027-9.3416h6.707l-.312 1.7663h-3.856v1.9253h4.006v1.7773h-4.006v2.1064ZM268 49.8521h-6.357v-9.3416h2.555v7.5068h3.813L268 49.8521Z"
    ></path>
  </g>
  <defs>
    <clipPath id="clip0_201_16921"><path fill="#fff" d="M0 0h268v50H0z"></path></clipPath>
  </defs>
</svg>
